<svg width="36" height="24" viewBox="0 0 36 24" fill="none" xmlns="http://www.w3.org/2000/svg">
<path d="M35.2294 23.5425C34.9204 23.5425 34.637 23.3657 34.5155 23.0756C34.4264 22.865 32.1997 17.8704 23.8745 16.8812C22.1404 16.6707 20.0634 16.5628 17.5412 16.5439V22.7692C17.5412 23.0567 17.386 23.3171 17.1309 23.4548C16.8772 23.587 16.5735 23.5681 16.3374 23.4103L0.34278 12.6437C0.126856 12.4993 0 12.2564 0 12.0013C0 11.7436 0.126856 11.5088 0.34278 11.3576L16.3441 0.589744C16.5803 0.426452 16.8812 0.415656 17.1377 0.550608C17.3941 0.68826 17.5466 0.948719 17.5466 1.22807V7.02159C21.0256 7.47503 36 10.166 36 22.776C36 23.1417 35.7422 23.4615 35.3806 23.5344C35.3306 23.5425 35.278 23.5425 35.2294 23.5425Z" fill="#EC4899"/>
</svg>
