<svg width="80" height="80" viewBox="0 0 80 80" fill="none" xmlns="http://www.w3.org/2000/svg">
<rect width="79.225" height="79.225" rx="20" fill="#FDF2F8"/>
<path d="M39.6125 71.225C57.0716 71.225 71.225 57.0716 71.225 39.6125C71.225 22.1534 57.0716 8 39.6125 8C22.1534 8 8 22.1534 8 39.6125C8 57.0716 22.1534 71.225 39.6125 71.225Z" fill="#F9A8D4"/>
<path d="M39.6125 64.1999C53.1918 64.1999 64.2 53.1917 64.2 39.6124C64.2 26.0331 53.1918 15.0249 39.6125 15.0249C26.0332 15.0249 15.025 26.0331 15.025 39.6124C15.025 53.1917 26.0332 64.1999 39.6125 64.1999Z" fill="#F472B5"/>
<path d="M40.6831 26.5229L44.209 33.6666C44.3832 34.0185 44.719 34.263 45.1075 34.3199L52.9909 35.4657C53.9702 35.6083 54.3608 36.811 53.6527 37.5015L47.9484 43.0618C47.6674 43.3358 47.5388 43.7313 47.6048 44.1184L48.9515 51.9695C49.1187 52.9446 48.0952 53.6885 47.2199 53.2277L40.1689 49.5206C39.8211 49.338 39.406 49.338 39.0582 49.5206L32.0072 53.2277C31.1312 53.6878 30.1084 52.9446 30.2756 51.9695L31.6223 44.1184C31.689 43.7313 31.5605 43.3358 31.2787 43.0618L25.5744 37.5015C24.8663 36.811 25.2569 35.6076 26.2362 35.4657L34.1197 34.3199C34.5081 34.2637 34.8446 34.0192 35.0182 33.6666L38.544 26.5229C38.9803 25.6356 40.2448 25.6356 40.6831 26.5229Z" fill="#F9A8D4"/>
</svg>
