<svg width="48" height="60" viewBox="0 0 48 60" fill="none" xmlns="http://www.w3.org/2000/svg">
<path fill-rule="evenodd" clip-rule="evenodd" d="M7.621 32.8068C11.9969 31.5899 15.6108 31.5653 21.978 35.7568L30.484 33.9007C31.7869 33.618 32.5367 33.9991 33.0038 34.6014C33.2988 34.9947 33.4095 35.4495 33.2988 35.9289C33.1882 36.4083 32.9055 36.7771 32.463 36.9983L23.3178 41.6324C22.4942 42.1609 23.0597 43.0459 23.7234 42.7387L34.1962 37.49C34.6264 37.2687 34.946 36.9492 35.1549 36.5066C35.3885 36.015 35.7327 35.6216 36.1997 35.2897L44.6812 29.3527C46.8323 27.8408 48.5163 29.9427 47.8402 30.7048L37.4781 41.2022L26.4277 46.8933C24.9649 47.6431 23.5145 47.9136 21.8796 47.7169L7.79309 46.1312C7.25224 46.0698 6.84661 45.615 6.84661 45.0741V33.8393C6.84661 33.3476 7.1539 32.942 7.621 32.8068ZM26.4645 6.21932C26.4891 6.26848 26.5506 6.30536 26.612 6.30536C26.6735 6.30536 26.7227 6.26848 26.7595 6.21932C29.1442 2.01547 32.7949 -1.2296 37.7977 0.454399C41.6451 1.74505 44.4353 5.54326 44.4353 10.0298C44.4353 16.397 37.8837 21.5719 33.6799 25.6774L27.7552 31.1351C27.1037 31.7251 26.1081 31.7251 25.4566 31.1351L19.5442 25.6774C15.3403 21.5719 8.78873 16.397 8.78873 10.0298C8.78873 5.42034 11.7265 1.54838 15.7337 0.356063C20.6259 -1.09438 24.1536 2.15069 26.4645 6.21932ZM1.0694 32.8928H4.47426C5.06428 32.8928 5.54366 33.3722 5.54366 33.9499V45.8731C5.54366 47.0408 4.58489 47.9996 3.41716 47.9996H1.0694C0.479385 47.9996 0 47.5202 0 46.9302V33.9499C0 33.3722 0.479385 32.8928 1.0694 32.8928Z" fill="#EC4899"/>
</svg>
