<svg width="64" height="64" viewBox="0 0 64 64" fill="none" xmlns="http://www.w3.org/2000/svg">
<path opacity="0.5" d="M5.33325 31.9999C5.33325 19.4291 5.33325 13.1437 9.2385 9.2385C13.1437 5.33325 19.4291 5.33325 31.9999 5.33325C44.5706 5.33325 50.8562 5.33325 54.7612 9.2385C58.6666 13.1437 58.6666 19.4291 58.6666 31.9999C58.6666 44.5706 58.6666 50.8562 54.7612 54.7612C50.8562 58.6666 44.5706 58.6666 31.9999 58.6666C19.4291 58.6666 13.1437 58.6666 9.2385 54.7612C5.33325 50.8562 5.33325 44.5706 5.33325 31.9999Z" fill="#EC4899"/>
<path d="M34 18.6667C34 17.5622 33.1045 16.6667 32 16.6667C30.8955 16.6667 30 17.5622 30 18.6667V32.5049L25.4142 27.9193C24.6332 27.1382 23.3668 27.1382 22.5858 27.9193C21.8047 28.7003 21.8047 29.9665 22.5858 30.7475L30.5859 38.7475C30.9608 39.1227 31.4696 39.3334 32 39.3334C32.5304 39.3334 33.0392 39.1227 33.4141 38.7475L41.4141 30.7475C42.1952 29.9665 42.1952 28.7003 41.4141 27.9193C40.6331 27.1382 39.3669 27.1382 38.5859 27.9193L34 32.5049V18.6667Z" fill="#EC4899"/>
<path d="M21.3333 43.3333C20.2287 43.3333 19.3333 44.2287 19.3333 45.3333C19.3333 46.4378 20.2287 47.3333 21.3333 47.3333H42.6666C43.7711 47.3333 44.6666 46.4378 44.6666 45.3333C44.6666 44.2287 43.7711 43.3333 42.6666 43.3333H21.3333Z" fill="#EC4899"/>
</svg>
