<svg width="28" height="28" viewBox="0 0 28 28" fill="none" xmlns="http://www.w3.org/2000/svg">
<path d="M22.0546 10.3443C21.6732 10.3443 21.3639 10.6536 21.3639 11.0351V23.6491C21.3639 24.982 20.2791 26.0667 18.9462 26.0667H3.79927C2.4663 26.0667 1.38157 24.982 1.38157 23.6491V8.50204C1.38157 7.16907 2.4663 6.08439 3.79927 6.08439H18.9462C19.3276 6.08439 19.6369 5.77511 19.6369 5.39364C19.6369 5.01217 19.3276 4.70288 18.9462 4.70288H3.79927C1.70432 4.70288 0 6.40714 0 8.50204V23.6491C0 25.7439 1.70432 27.4482 3.79927 27.4482H18.9462C21.0411 27.4482 22.7454 25.7439 22.7454 23.6491V11.0352C22.7454 10.6537 22.4361 10.3443 22.0546 10.3443Z" fill="#030712"/>
<path d="M27.3746 1.1762C26.5418 0.343442 25.1869 0.343781 24.3549 1.1762L12.5228 13.0086C12.5069 13.0244 12.3285 13.2099 12.2823 13.3139L10.6438 16.995C10.5274 17.2563 10.584 17.5623 10.7864 17.7644C10.9186 17.8966 11.0953 17.9667 11.2751 17.9667C11.3699 17.9667 11.4653 17.9471 11.5557 17.9069L15.2369 16.2684C15.3405 16.2223 15.5262 16.0438 15.5422 16.028L27.3746 4.19595C27.778 3.79253 28.0002 3.25627 28.0002 2.6859C28.0002 2.11559 27.778 1.57922 27.3746 1.1762ZM26.3978 3.21882L14.5654 15.0512C14.5634 15.0533 14.5622 15.0556 14.5603 15.0573L12.6375 15.9133L13.4935 13.9905C13.4952 13.9884 13.4975 13.9874 13.4995 13.9854L25.3316 2.15304C25.6167 1.86797 26.1134 1.86831 26.3978 2.15332C26.5403 2.29532 26.6187 2.48456 26.6187 2.6859C26.6187 2.88725 26.5402 3.07643 26.3978 3.21882Z" fill="#030712"/>
</svg>
