<svg width="322" height="68" viewBox="0 0 322 68" fill="none" xmlns="http://www.w3.org/2000/svg">
<path d="M29.88 54V14.8H47.464C51.9813 14.8 55.4533 15.7147 57.88 17.544C60.3067 19.336 61.52 21.8 61.52 24.936C61.52 27.064 61.0347 28.856 60.064 30.312C59.1307 31.768 57.8613 32.888 56.256 33.672C54.6507 34.456 52.9147 34.848 51.048 34.848L52.056 33.168C54.296 33.168 56.2747 33.56 57.992 34.344C59.7093 35.128 61.072 36.2853 62.08 37.816C63.088 39.3093 63.592 41.176 63.592 43.416C63.592 46.776 62.3227 49.3893 59.784 51.256C57.2827 53.0853 53.5493 54 48.584 54H29.88ZM35.48 49.464H48.36C51.4587 49.464 53.8293 48.9413 55.472 47.896C57.1147 46.8507 57.936 45.208 57.936 42.968C57.936 40.6907 57.1147 39.0293 55.472 37.984C53.8293 36.9387 51.4587 36.416 48.36 36.416H34.976V31.88H46.96C49.7973 31.88 52 31.3573 53.568 30.312C55.136 29.2667 55.92 27.6987 55.92 25.608C55.92 23.5173 55.136 21.9493 53.568 20.904C52 19.8587 49.7973 19.336 46.96 19.336H35.48V49.464ZM71.4788 54V12.448H76.8548V54H71.4788ZM99.8314 54.336C96.8448 54.336 94.1941 53.6827 91.8794 52.376C89.5648 51.0693 87.7354 49.2773 86.3914 47C85.0474 44.6853 84.3754 42.072 84.3754 39.16C84.3754 36.2107 85.0474 33.5973 86.3914 31.32C87.7354 29.0427 89.5648 27.2693 91.8794 26C94.1941 24.6933 96.8448 24.04 99.8314 24.04C102.781 24.04 105.413 24.6933 107.727 26C110.079 27.2693 111.909 29.0427 113.215 31.32C114.559 33.56 115.231 36.1733 115.231 39.16C115.231 42.1093 114.559 44.7227 113.215 47C111.909 49.2773 110.079 51.0693 107.727 52.376C105.413 53.6827 102.781 54.336 99.8314 54.336ZM99.8314 49.632C101.735 49.632 103.434 49.2027 104.927 48.344C106.458 47.4853 107.653 46.272 108.511 44.704C109.37 43.0987 109.799 41.2507 109.799 39.16C109.799 37.032 109.37 35.2027 108.511 33.672C107.653 32.104 106.458 30.8907 104.927 30.032C103.434 29.1733 101.735 28.744 99.8314 28.744C97.9274 28.744 96.2288 29.1733 94.7354 30.032C93.2421 30.8907 92.0474 32.104 91.1514 33.672C90.2554 35.2027 89.8074 37.032 89.8074 39.16C89.8074 41.2507 90.2554 43.0987 91.1514 44.704C92.0474 46.272 93.2421 47.4853 94.7354 48.344C96.2288 49.2027 97.9274 49.632 99.8314 49.632ZM138.514 24.04C140.941 24.04 143.069 24.5067 144.898 25.44C146.765 26.3733 148.221 27.792 149.266 29.696C150.312 31.6 150.834 34.008 150.834 36.92V54H145.458V37.536C145.458 34.6613 144.749 32.496 143.33 31.04C141.949 29.584 139.989 28.856 137.45 28.856C135.546 28.856 133.885 29.2293 132.466 29.976C131.048 30.7227 129.946 31.824 129.162 33.28C128.416 34.736 128.042 36.5467 128.042 38.712V54H122.666V24.32H127.818V32.328L126.978 30.2C127.949 28.2587 129.442 26.7467 131.458 25.664C133.474 24.5813 135.826 24.04 138.514 24.04ZM173.048 54.336C170.173 54.336 167.597 53.7013 165.32 52.432C163.08 51.1627 161.306 49.3893 160 47.112C158.693 44.8347 158.04 42.184 158.04 39.16C158.04 36.136 158.693 33.504 160 31.264C161.306 28.9867 163.08 27.2133 165.32 25.944C167.597 24.6747 170.173 24.04 173.048 24.04C175.549 24.04 177.808 24.6 179.824 25.72C181.84 26.84 183.445 28.52 184.64 30.76C185.872 33 186.488 35.8 186.488 39.16C186.488 42.52 185.89 45.32 184.696 47.56C183.538 49.8 181.952 51.4987 179.936 52.656C177.92 53.776 175.624 54.336 173.048 54.336ZM173.496 49.632C175.362 49.632 177.042 49.2027 178.536 48.344C180.066 47.4853 181.261 46.272 182.12 44.704C183.016 43.0987 183.464 41.2507 183.464 39.16C183.464 37.032 183.016 35.2027 182.12 33.672C181.261 32.104 180.066 30.8907 178.536 30.032C177.042 29.1733 175.362 28.744 173.496 28.744C171.592 28.744 169.893 29.1733 168.4 30.032C166.906 30.8907 165.712 32.104 164.816 33.672C163.92 35.2027 163.472 37.032 163.472 39.16C163.472 41.2507 163.92 43.0987 164.816 44.704C165.712 46.272 166.906 47.4853 168.4 48.344C169.893 49.2027 171.592 49.632 173.496 49.632ZM183.632 54V45.992L183.967 39.104L183.408 32.216V12.448H188.784V54H183.632ZM198.955 54V24.32H204.331V54H198.955ZM201.643 18.608C200.598 18.608 199.721 18.272 199.011 17.6C198.339 16.928 198.003 16.1067 198.003 15.136C198.003 14.128 198.339 13.288 199.011 12.616C199.721 11.944 200.598 11.608 201.643 11.608C202.689 11.608 203.547 11.944 204.219 12.616C204.929 13.2507 205.283 14.0533 205.283 15.024C205.283 16.032 204.947 16.8907 204.275 17.6C203.603 18.272 202.726 18.608 201.643 18.608ZM227.812 54.336C224.639 54.336 221.839 53.6827 219.412 52.376C217.023 51.0693 215.156 49.2773 213.812 47C212.505 44.7227 211.852 42.1093 211.852 39.16C211.852 36.2107 212.487 33.5973 213.756 31.32C215.063 29.0427 216.836 27.2693 219.076 26C221.353 24.6933 223.911 24.04 226.748 24.04C229.623 24.04 232.161 24.6747 234.364 25.944C236.567 27.2133 238.284 29.0053 239.516 31.32C240.785 33.5973 241.42 36.2667 241.42 39.328C241.42 39.552 241.401 39.8133 241.364 40.112C241.364 40.4107 241.345 40.6907 241.308 40.952H216.052V37.088H238.508L236.324 38.432C236.361 36.528 235.969 34.8293 235.148 33.336C234.327 31.8427 233.188 30.6853 231.732 29.864C230.313 29.0053 228.652 28.576 226.748 28.576C224.881 28.576 223.22 29.0053 221.764 29.864C220.308 30.6853 219.169 31.8613 218.348 33.392C217.527 34.8853 217.116 36.6027 217.116 38.544V39.44C217.116 41.4187 217.564 43.192 218.46 44.76C219.393 46.2907 220.681 47.4853 222.324 48.344C223.967 49.2027 225.852 49.632 227.98 49.632C229.735 49.632 231.321 49.3333 232.74 48.736C234.196 48.1387 235.465 47.2427 236.548 46.048L239.516 49.52C238.172 51.088 236.492 52.2827 234.476 53.104C232.497 53.9253 230.276 54.336 227.812 54.336Z" fill="#F9F9F9"/>
<path d="M18.5 5.5C5.83334 16 -11.9 42.8 18.5 66" stroke="#F9F9F9" stroke-width="3" stroke-linecap="round"/>
<path d="M259.857 37.3573C270.357 50.0239 294.5 67 320.5 37.3573" stroke="#F9F9F9" stroke-width="3" stroke-linecap="round"/>
</svg>
