<svg width="79" height="79" viewBox="0 0 79 79" fill="none" xmlns="http://www.w3.org/2000/svg">
<rect width="79" height="79" rx="20" fill="#FDF2F8"/>
<rect x="8" y="8" width="63" height="63" rx="20" fill="#FDF2F8"/>
<path d="M66.9585 38.5299C66.0263 37.5649 64.7519 37.0055 63.4106 36.9725C62.0693 36.9395 60.7689 37.4356 59.7904 38.3535L50.09 46.9719C50.5805 47.9178 50.8354 48.9681 50.8333 50.0337C50.8281 51.4077 50.4063 52.7478 49.6236 53.8771C48.8409 55.0064 47.734 55.8717 46.4493 56.3589L38.2984 59.4207C37.9858 59.5323 37.6419 59.517 37.3404 59.378C37.039 59.2391 36.804 58.9875 36.6859 58.6773C36.6262 58.5235 36.5977 58.3595 36.6022 58.1946C36.6067 58.0298 36.6441 57.8675 36.7121 57.7173C36.7802 57.567 36.8775 57.4319 36.9985 57.3198C37.1195 57.2077 37.2616 57.1209 37.4165 57.0645L45.5674 54.0027C46.3729 53.6966 47.0667 53.1534 47.557 52.4447C48.0474 51.7361 48.3112 50.8954 48.3137 50.0337C48.2827 48.9207 47.8268 47.8619 47.0396 47.0746C46.2524 46.2873 45.1937 45.8312 44.0808 45.8001H20.5983C20.5983 45.4692 20.5332 45.1415 20.4066 44.8358C20.28 44.53 20.0944 44.2522 19.8604 44.0182C19.6265 43.7842 19.3487 43.5986 19.043 43.4719C18.7373 43.3453 18.4096 43.2801 18.0787 43.2801H13.0396C12.7087 43.2801 12.381 43.3453 12.0753 43.4719C11.7696 43.5986 11.4918 43.7842 11.2579 44.0182C11.0239 44.2522 10.8383 44.53 10.7117 44.8358C10.5851 45.1415 10.52 45.4692 10.52 45.8001V65.9601C10.5199 66.6283 10.7854 67.2693 11.2579 67.7419C11.7304 68.2145 12.3713 68.48 13.0396 68.4801H18.0787C18.747 68.48 19.3879 68.2145 19.8604 67.7419C20.3329 67.2693 20.5984 66.6283 20.5983 65.9601H25.7005L27.2752 66.6027C32.1621 68.6246 37.5688 69.0255 42.7005 67.7463C47.8322 66.4671 52.4181 63.5754 55.7842 59.4963L67.2609 45.6237C68.0983 44.6139 68.531 43.3292 68.4751 42.0186C68.4193 40.7079 67.8788 39.4647 66.9585 38.5299ZM24.3777 63.4401H20.5983V48.3201H24.3777V63.4401ZM46.3268 10.5201C43.8411 10.5134 41.4288 11.3624 39.4951 12.9244C37.5615 11.3624 35.1492 10.5134 32.6635 10.5201C29.7646 10.5273 26.9869 11.6841 24.9398 13.7366C22.8927 15.7892 21.7433 18.5699 21.7437 21.4688C21.7437 32.9884 38.1615 42.7005 38.8603 43.109C39.0531 43.2211 39.2721 43.2801 39.4951 43.2801C39.7181 43.2801 39.9371 43.2211 40.1299 43.109C40.8287 42.7005 57.2466 32.9884 57.2466 21.4688C57.247 18.5699 56.0976 15.7891 54.0505 13.7366C52.0033 11.6841 49.2257 10.5273 46.3268 10.5201ZM44.0941 34.028C43.8637 34.2171 43.5728 34.3169 43.2748 34.3089C43.0208 34.3069 42.7735 34.2278 42.5654 34.0822C42.3573 33.9365 42.1984 33.7312 42.1095 33.4932C42.0207 33.2553 42.0062 32.996 42.0679 32.7497C42.1296 32.5033 42.2647 32.2815 42.4552 32.1136C47.1191 28.1182 49.6879 24.337 49.6879 21.4688C49.6905 20.574 49.3382 19.7147 48.708 19.0794C48.0779 18.4441 47.2215 18.0847 46.3268 18.0801C45.9926 18.0801 45.6721 17.9473 45.4358 17.711C45.1995 17.4747 45.0668 17.1542 45.0668 16.8201C45.0668 16.4859 45.1995 16.1654 45.4358 15.9291C45.6721 15.6928 45.9926 15.5601 46.3268 15.5601C47.8896 15.5655 49.3865 16.1906 50.489 17.2983C51.5915 18.4061 52.2095 19.9059 52.2074 21.4688C52.2074 26.1039 47.7959 30.8559 44.0941 34.028Z" fill="#F472B5"/>
</svg>
