<svg width="64" height="60" viewBox="0 0 64 60" fill="none" xmlns="http://www.w3.org/2000/svg">
<path d="M49 7.5C47.159 7.49986 45.392 8.17967 44.0818 9.39219C42.7716 10.6047 42.0237 12.2523 42 13.9781C42 20.4469 49 23.4375 49 23.4375C49 23.4375 56 20.4469 56 13.9781C55.9763 12.2523 55.2284 10.6047 53.9182 9.39219C52.608 8.17967 50.841 7.49986 49 7.5ZM49 16.7625C48.4212 16.7514 47.8588 16.5804 47.3833 16.2709C46.9078 15.9614 46.5403 15.5271 46.3269 15.0226C46.1136 14.5181 46.0639 13.9658 46.184 13.4349C46.3041 12.904 46.5888 12.4181 47.0022 12.0383C47.4157 11.6584 47.9395 11.4014 48.5081 11.2996C49.0768 11.1977 49.6648 11.2555 50.1985 11.4656C50.7322 11.6758 51.1879 12.029 51.5084 12.481C51.8289 12.9329 51.9999 13.4635 52 14.0062C51.9843 14.7424 51.6613 15.4434 51.1004 15.9587C50.5395 16.4741 49.7854 16.7626 49 16.7625Z" fill="#EC4899"/>
<path d="M8 52.5L10.11 45.9375L8 39.375L21 45.9375L8 52.5Z" fill="#EC4899"/>
<path d="M47.5 46.875H24C23.7348 46.875 23.4804 46.7762 23.2929 46.6004C23.1054 46.4246 23 46.1861 23 45.9375C23 45.6889 23.1054 45.4504 23.2929 45.2746C23.4804 45.0988 23.7348 45 24 45H47.5C48.6935 45 49.8381 44.5555 50.682 43.7644C51.5259 42.9732 52 41.9001 52 40.7812C52 39.6624 51.5259 38.5893 50.682 37.7981C49.8381 37.007 48.6935 36.5625 47.5 36.5625H16.5C14.7761 36.5625 13.1228 35.9205 11.9038 34.7777C10.6848 33.6349 10 32.0849 10 30.4688C10 28.8526 10.6848 27.3026 11.9038 26.1598C13.1228 25.017 14.7761 24.375 16.5 24.375H49C49.2652 24.375 49.5196 24.4738 49.7071 24.6496C49.8946 24.8254 50 25.0639 50 25.3125C50 25.5611 49.8946 25.7996 49.7071 25.9754C49.5196 26.1512 49.2652 26.25 49 26.25H16.5C15.3065 26.25 14.1619 26.6945 13.318 27.4856C12.4741 28.2768 12 29.3499 12 30.4688C12 31.5876 12.4741 32.6607 13.318 33.4519C14.1619 34.243 15.3065 34.6875 16.5 34.6875H47.5C49.2239 34.6875 50.8772 35.3295 52.0962 36.4723C53.3152 37.6151 54 39.1651 54 40.7812C54 42.3974 53.3152 43.9474 52.0962 45.0902C50.8772 46.233 49.2239 46.875 47.5 46.875Z" fill="#EC4899"/>
</svg>
